<svg xmlns="http://www.w3.org/2000/svg" viewBox="0 0 114.82 105.13"><defs><style>.cls-1{fill:#11afe4;}</style></defs><g id="Camada_2" data-name="Camada 2"><g id="Camada_1-2" data-name="Camada 1"><path class="cls-1" d="M0,54.62c.05,0,.12-.09.14-.15,1.49-4.83,4.63-7,10.11-7h8.28V46.15c0-4.56,0-9.11,0-13.66A8.58,8.58,0,0,1,25.85,24a14.91,14.91,0,0,1,2.68-.19c3.62,0,7.25,0,10.87,0h1.3c0-.48.06-.84.06-1.2,0-4.52,0-9,0-13.56,0-5.44,3.9-9,9.84-9h54.27c6.08,0,9.95,3.54,9.95,9.1q0,19.77,0,39.53c0,5.41-3.91,9-9.81,9-4.07,0-8.15,0-12.4,0v1.11c0,4.55,0,9.11,0,13.66,0,5.3-3.89,8.88-9.69,8.93-2.5,0-5,0-7.51,0H74.06V95.84c0,5-2.44,7.9-7.72,9.18a1.08,1.08,0,0,0-.18.11H7.85c-.24-.07-.47-.16-.72-.22A9,9,0,0,1,.54,99.48C.33,99,.18,98.46,0,98Zm55.53-27.5h-27c-4.07,0-6.29,2-6.3,5.78V72.22C22.22,76,24.43,78,28.5,78H82.66c4,0,6.21-2,6.22-5.62V32.76c0-3.62-2.24-5.64-6.21-5.64Zm-37,23.77H9.87c-4,0-6.16,2-6.16,5.66q0,19.76,0,39.52c0,3.64,2.2,5.66,6.16,5.66H64.24c3.88,0,6.14-2.06,6.15-5.59,0-4.55,0-9.1,0-13.65,0-.33,0-.66-.06-1.11H68.82q-20.07,0-40.13,0a14.44,14.44,0,0,1-2.79-.19,8.57,8.57,0,0,1-7.36-8.6c0-6.77,0-13.55,0-20.32Zm74.08,3.36h12.46c3.81,0,6-2,6-5.57q0-19.86,0-39.73c0-3.51-2.24-5.54-6.06-5.55H50.56c-3.88,0-6.12,2.07-6.13,5.62V22.67c0,.33,0,.66.07,1H74.06V6.83h33.36V31.5c0,2.49,0,5,0,7.49A5.35,5.35,0,0,1,102,44.1a5.44,5.44,0,0,1-5.63-4.72,5.19,5.19,0,0,1,4.8-5.41,20.61,20.61,0,0,1,2.49,0V17H77.88v6.72h4.78c6.09,0,9.94,3.54,10,9.11V54.25Zm11-44H77.85V13.5h25.78ZM103.68,39a1.71,1.71,0,0,0-1.86-1.66A1.67,1.67,0,1,0,103.68,39Z"/><path class="cls-1" d="M73.36,54l-29.5,13.5a2.09,2.09,0,0,1-3-1.71v-27a1.67,1.67,0,0,1,2.42-1.37L73.36,51.19A1.49,1.49,0,0,1,73.36,54ZM44.47,63.39,68.1,52.57,44.47,41.75Z"/><path class="cls-1" d="M36.5,33.91H30.09a.41.41,0,0,0-.43.39V46.19a1.27,1.27,0,0,1-1.32,1.21H27a1,1,0,0,1-1.07-1h0q0-6,0-12c0-2.59,1.38-3.86,4.17-3.86,2.13,0,4.26,0,6.39,0h0a.41.41,0,0,1,.42.39v2.58A.41.41,0,0,1,36.5,33.91Z"/><path class="cls-1" d="M85.12,57.62H81.54V54.3h3.58Z"/><path class="cls-1" d="M81.56,61.09h3.58v3.27H81.56Z"/><path class="cls-1" d="M81.54,71.17V67.91h3.58v3.26Z"/><path class="cls-1" d="M26,50.94h3.52v3.24H26Z"/><path class="cls-1" d="M26,61V57.73h3.54V61Z"/><path class="cls-1" d="M27.78,94.92V98.3H16.67V95H9.24a1.69,1.69,0,0,1-1.76-1.61v-.13a1.69,1.69,0,0,1,1.76-1.62h7.37V88.24H27.76v3.31H64.83a1.69,1.69,0,0,1,1.76,1.62v.13a1.69,1.69,0,0,1-1.76,1.62Zm-5.53-3.29h0a1.7,1.7,0,0,0-1.76,1.62h0a1.7,1.7,0,0,0,1.76,1.62h0A1.7,1.7,0,0,0,24,93.25h0A1.7,1.7,0,0,0,22.25,91.63Z"/><path class="cls-1" d="M7.46,61V57.72H11V61Z"/><path class="cls-1" d="M11.05,67.76H7.46V64.52h3.59Z"/><path class="cls-1" d="M7.47,71.27h3.58v3.24H7.47Z"/><path class="cls-1" d="M48.22,8.47h0A1.7,1.7,0,0,1,50,6.84H68.55a1.7,1.7,0,0,1,1.77,1.63h0a1.7,1.7,0,0,1-1.77,1.62H50A1.7,1.7,0,0,1,48.22,8.47Z"/><path class="cls-1" d="M70.36,15.25h0a1.71,1.71,0,0,1-1.78,1.63H50a1.7,1.7,0,0,1-1.77-1.63h0A1.7,1.7,0,0,1,50,13.62H68.58A1.71,1.71,0,0,1,70.36,15.25Z"/></g></g></svg>