<svg xmlns="http://www.w3.org/2000/svg" viewBox="0 0 105.71 105.61"><defs><style>.cls-1{fill:#dc0073;}</style></defs><g id="Camada_2" data-name="Camada 2"><g id="Camada_1-2" data-name="Camada 1"><path class="cls-1" d="M54.36,0c.68.17,1.37.33,2,.53a11.4,11.4,0,0,1,5.76,18.23l-.81.95c.59.09,1.09.16,1.59.25a8.25,8.25,0,0,1,7,8c0,4.33,0,8.66,0,13,0,1.35-.64,2-2,2h-30c-1.39,0-2-.61-2-2,0-4.29,0-8.59,0-12.89a8.36,8.36,0,0,1,7.8-8.22l.73-.06a5.35,5.35,0,0,0-.3-.46C37.78,12.14,41.49,1.91,51,.16A1.4,1.4,0,0,0,51.38,0Zm-10,39.56c0-1.6,0-3.11,0-4.62,0-1.2.68-1.94,1.72-1.93a1.71,1.71,0,0,1,1.68,1.87c0,.38,0,.75,0,1.13v3.54H58c0-1.49,0-2.93,0-4.36a2.9,2.9,0,0,1,.14-1.11,1.54,1.54,0,0,1,1.85-1,1.6,1.6,0,0,1,1.41,1.69c0,1.6,0,3.2,0,4.78H66.5c0-3.82,0-7.56,0-11.31a5,5,0,0,0-5.33-5.1q-8.3,0-16.6,0a5,5,0,0,0-5.32,5.21c0,3.47,0,6.94,0,10.41,0,.26,0,.53,0,.83Zm17-28a8.52,8.52,0,0,0-17-.09,8.52,8.52,0,0,0,17,.09Z"/><path class="cls-1" d="M1.12,105.61A2.53,2.53,0,0,1,0,103.22c0-3.75.18-7.5,0-11.24-.26-4.7,2.54-9,8.6-9.56A11.34,11.34,0,0,1,5.44,71.86a11.1,11.1,0,0,1,4.48-6.81,12.19,12.19,0,0,1,15.64,1.08c4,3.91,5.15,10.76,0,16.29.59.09,1.12.16,1.65.26a8.21,8.21,0,0,1,6.85,7.75q.12,6.66,0,13.3c0,.64-.66,1.26-1,1.88Zm29.6-3.34c0-4,.05-7.88,0-11.76a5,5,0,0,0-5.2-4.69q-8.4,0-16.81,0a5,5,0,0,0-5.22,5.1c0,2.23,0,4.46,0,6.7v4.62H8.58c0-1.61,0-3.15,0-4.69a1.68,1.68,0,0,1,1.72-1.83A1.7,1.7,0,0,1,12,97.58c0,.38,0,.76,0,1.14v3.59H22.21c0-1.54,0-3,0-4.41a2.9,2.9,0,0,1,.14-1.11,1.55,1.55,0,0,1,1.85-1,1.6,1.6,0,0,1,1.41,1.69c0,1.6,0,3.21,0,4.83ZM17,82.51A8.25,8.25,0,1,0,17.2,66,8.26,8.26,0,1,0,17,82.51Z"/><path class="cls-1" d="M72.68,105.61a2.53,2.53,0,0,1-1.09-2.39c0-3.75.19-7.5,0-11.24-.25-4.7,2.55-9,8.61-9.56A11.31,11.31,0,0,1,77,71.86a11.13,11.13,0,0,1,4.47-6.81,12.2,12.2,0,0,1,15.65,1.08c4,3.91,5.15,10.76,0,16.29.58.09,1.12.16,1.65.26a8.21,8.21,0,0,1,6.85,7.75q.12,6.66,0,13.3c0,.64-.66,1.26-1,1.88Zm7.46-3.35c0-1.64,0-3.22,0-4.79a1.7,1.7,0,1,1,3.4.09c0,1.57,0,3.13,0,4.67H93.76V97.81c0-1.31.61-2.06,1.66-2.09s1.74.75,1.75,2.11,0,2.94,0,4.41h5.09c0-4,.09-8,0-11.92a4.89,4.89,0,0,0-5-4.5q-8.52,0-17,0a5,5,0,0,0-5.13,5c0,1.72,0,3.44,0,5.16v6.31Zm17-27.92a8.52,8.52,0,1,0-8.63,8.17A8.4,8.4,0,0,0,97.17,74.34Z"/><path class="cls-1" d="M45,82.51H36.28c-1.54,0-2.14-.58-2.15-2.05,0-5.43,0-10.86,0-16.29.07-9.49,7.87-17.42,17.58-17.94C61.62,45.7,70.2,52.58,71.44,62,72.86,72.86,64.26,82.41,53,82.5,50.34,82.53,47.67,82.51,45,82.51Zm-7.47-3.3c5.15,0,10.15,0,15.15,0,9.6,0,16.63-7.88,15.33-17.1-1-7.1-7.58-12.59-15.09-12.6S38.75,55,37.74,62.1a18.41,18.41,0,0,0-.19,2.57C37.53,69.47,37.54,74.28,37.54,79.21Z"/><path class="cls-1" d="M99,53.24c-.3,2.34-.64,5.2-1,8.06A1.7,1.7,0,0,1,96,63c-1.07-.14-1.53-.95-1.39-2.26a77,77,0,0,0,.8-8.39c-.08-16.64-10.94-31.84-26.93-37.91-.33-.13-.67-.24-1-.39a1.62,1.62,0,0,1-1-2,1.73,1.73,0,0,1,2.18-1,18.57,18.57,0,0,1,1.88.71Q94.49,22.16,98.47,47.25C98.76,49.05,98.81,50.88,99,53.24Z"/><path class="cls-1" d="M6.82,52.67c.09-18.3,12-35,29.64-41.47a3,3,0,0,1,2,0,1.6,1.6,0,0,1,.74,1.41A2.54,2.54,0,0,1,38,14.1c-2.22,1.13-4.62,2-6.76,3.22-12,7.09-18.85,17.46-20.7,30.93a36.46,36.46,0,0,0,.5,12.1,5.66,5.66,0,0,1,.12.81A1.6,1.6,0,0,1,9.81,63a1.61,1.61,0,0,1-2-1.31c-.3-1.44-.55-2.9-.71-4.37S6.91,54.21,6.82,52.67Z"/><path class="cls-1" d="M52.85,97.57A54.09,54.09,0,0,1,37.3,94.72c-1.18-.42-1.7-1.25-1.36-2.18a1.74,1.74,0,0,1,2.44-.93A44.32,44.32,0,0,0,53.62,94a43.88,43.88,0,0,0,13.44-2.33,3.5,3.5,0,0,1,1.33-.26,1.62,1.62,0,0,1,.26,3.2,64,64,0,0,1-6.75,1.81C58.91,97,55.87,97.21,52.85,97.57Z"/><path class="cls-1" d="M55.54,56.11h5.53c1.25,0,2,.65,2,1.65s-.77,1.64-2,1.64H49.78c-1.25,0-2-.64-2-1.65s.76-1.63,2-1.64Z"/><path class="cls-1" d="M57.15,66c-1.35,0-2.7,0-4,0-1.17,0-1.91-.66-1.92-1.63a1.69,1.69,0,0,1,1.89-1.66c2.7,0,5.4,0,8.09,0,1.18,0,1.92.66,1.93,1.63S62.35,66,61.19,66C59.84,66,58.49,66,57.15,66Z"/><path class="cls-1" d="M48.57,72.61c-1.35,0-2.7,0-4,0a1.65,1.65,0,1,1,0-3.28c2.74,0,5.47,0,8.2,0a1.66,1.66,0,1,1,0,3.29C51.34,72.63,50,72.61,48.57,72.61Z"/><path class="cls-1" d="M46,66H44.65c-1.24,0-2-.68-2-1.68s.76-1.6,1.93-1.62c1,0,2,0,3,0,1.16,0,1.9.7,1.89,1.67S48.7,66,47.52,66C47,66,46.53,66,46,66Z"/></g></g></svg>