<svg xmlns="http://www.w3.org/2000/svg" viewBox="0 0 120.13 107.45"><defs><style>.cls-1{fill:#dc0073;}</style></defs><g id="Camada_2" data-name="Camada 2"><g id="Camada_1-2" data-name="Camada 1"><path class="cls-1" d="M0,10.86C1.05,8.07,3.26,7.05,6.35,7.2c2.15.1,4.31,0,6.46,0,1.39,0,2.19.61,2.2,1.6s-.8,1.61-2.17,1.62H5.57c-1.55,0-2.05.45-2.05,1.86V77.88c0,1.53.47,1.89,2.37,1.89q45.45,0,90.92,0H98c1.28,0,2,.65,2,1.65S99.23,83,98,83c-2.89,0-5.79,0-8.68,0h-1.6v2.56c0,3.36-1.43,4.66-5.13,4.67H66.13c.26.5.44.84.63,1.18L74,104.34c.19.35.54.75.48,1.07a3,3,0,0,1-.78,1.73,1.54,1.54,0,0,1-2.1-.24,5,5,0,0,1-.72-1.09c-2.73-4.88-5.48-9.75-8.16-14.65A1.64,1.64,0,0,0,61,90.22q-8.56,0-17.13,0a1.66,1.66,0,0,0-1.71.94c-2.68,4.9-5.42,9.77-8.15,14.65a6.31,6.31,0,0,1-.58.93,1.71,1.71,0,0,1-2.19.48,1.42,1.42,0,0,1-.84-1.9,6.34,6.34,0,0,1,.48-1l7.2-12.92c.18-.32.34-.64.59-1.12-.53,0-.93-.06-1.33-.06H22.07c-3.53,0-4.95-1.33-4.95-4.6V83H15.84c-3.17,0-6.34-.09-9.5,0S1,82.14,0,79.35ZM84.21,83.08H20.64v2.33c0,1.59,0,1.59,1.72,1.59H82.42c.28,0,.55,0,.82,0,.69,0,1-.26,1-.9C84.19,85.13,84.21,84.16,84.21,83.08Z"/><path class="cls-1" d="M91.94,29.72c12.17.21,21.35,7.39,23.16,18.19,1,5.82-.71,11.17-4.64,15.86-1.27,1.51-1.31,1.47-.26,3.15q4.36,6.93,8.73,13.87c1.51,2.41,1.74,4.82-.13,7.16a7,7,0,0,1-11-.34c-1.14-1.63-2.13-3.34-3.19-5-2.18-3.47-4.38-7-6.54-10.44a1.21,1.21,0,0,0-1.46-.63c-13.31,2.1-25.23-5.73-27-18C68,43,75,33.66,85.54,30.67a31.81,31.81,0,0,1,4-.8A20.6,20.6,0,0,1,91.94,29.72Zm.36,3.22C81.43,33,72.86,41,72.9,51.07c0,9.78,8.82,17.62,19.73,17.6,10.62,0,19.17-8.09,19.19-18.12C111.84,41,102.88,32.91,92.3,32.94Zm14.22,34.61-5.43,2.89c.12.22.23.45.37.67l9,14.33A3.34,3.34,0,0,0,114,87.21a2.87,2.87,0,0,0,2-4.61c-2.73-4.39-5.5-8.75-8.25-13.13Z"/><path class="cls-1" d="M32.23,38.6c1.93-1,3.85-2,5.71-3a1.6,1.6,0,0,0,.53-1.22,5.25,5.25,0,0,1,3.45-5.08,5.9,5.9,0,0,1,6.32.89,4.72,4.72,0,0,1,1.91,4.22A1.28,1.28,0,0,0,51,35.81c1.81.9,3.6,1.85,5.43,2.79a6.72,6.72,0,0,1,5.38-1.28,1.26,1.26,0,0,0,.91-.47c2.93-3.72,5.85-7.45,8.72-11.21a1.35,1.35,0,0,0,0-1.21,5,5,0,0,1,.65-5.95,5.94,5.94,0,0,1,6.22-1.74,5.29,5.29,0,0,1,4.09,4.63c.41,3.43-3,6.4-6.74,5.77a1.33,1.33,0,0,0-1.51.61Q70,33.2,65.73,38.6A1,1,0,0,0,65.6,40a4.93,4.93,0,0,1-.81,6.19,6.26,6.26,0,0,1-6.44,1.37,5.26,5.26,0,0,1-3.67-5.14,1.41,1.41,0,0,0-1-1.57c-1.52-.73-3-1.53-4.49-2.33a1.32,1.32,0,0,0-1.56,0,5.92,5.92,0,0,1-6.58,0,1.32,1.32,0,0,0-1.56,0c-1.44.79-2.9,1.56-4.39,2.28A1.61,1.61,0,0,0,34,42.53a5.45,5.45,0,0,1-5.13,5.37,5.79,5.79,0,0,1-6.42-4.36,5.36,5.36,0,0,1,4.07-6.11C28.43,36.91,30,37.21,32.23,38.6Zm12.14-2.32a2.27,2.27,0,0,0,2.29-2.16,2.33,2.33,0,0,0-4.65.06A2.3,2.3,0,0,0,44.37,36.28Zm30-14.48A2.21,2.21,0,0,0,76.58,24,2.28,2.28,0,0,0,79,21.91a2.31,2.31,0,0,0-4.6-.11ZM60.48,44.68a2.26,2.26,0,0,0,2.34-2.1,2.31,2.31,0,0,0-2.32-2.15,2.28,2.28,0,0,0-2.32,2.13A2.2,2.2,0,0,0,60.48,44.68Zm-30-2.08a2.29,2.29,0,0,0-2.28-2.17,2.34,2.34,0,0,0-2.37,2.1,2.26,2.26,0,0,0,2.3,2.15A2.24,2.24,0,0,0,30.5,42.6Z"/><path class="cls-1" d="M42.68,7.22c0-1.23,0-2.27,0-3.31A4,4,0,0,1,46.75.07C50.5,0,54.26,0,58,.06a4.07,4.07,0,0,1,4.16,4c0,1,0,2,0,3.15H98.92c4,0,5.92,1.77,5.93,5.4q0,6.84,0,13.68a4.19,4.19,0,0,1-.17,1.37,1.44,1.44,0,0,1-1.8,1,3.52,3.52,0,0,1-1.47-1.3c-.19-.24-.07-.7-.07-1.05V12.54c0-1.68-.45-2.09-2.29-2.09H21.49a11.11,11.11,0,0,1-1.29,0,1.58,1.58,0,0,1-1.61-1.56A1.54,1.54,0,0,1,20,7.28a6.78,6.78,0,0,1,1.28-.06H42.68Zm16,0a21,21,0,0,0,0-3,1.41,1.41,0,0,0-1-.9q-5.22-.09-10.42,0a1.28,1.28,0,0,0-1,.79,24.52,24.52,0,0,0,0,3.1Z"/><path class="cls-1" d="M39,60.83c0-3.52,0-7,0-10.55,0-1.79.59-2.33,2.51-2.34h5.87c1.64,0,2.3.6,2.31,2.09q0,10.81,0,21.64c0,1.44-.66,2-2.21,2q-3.1,0-6.21,0c-1.61,0-2.25-.61-2.26-2.13C39,68,39,64.42,39,60.83Zm3.62-9.6V70.42h3.47V51.23Z"/><path class="cls-1" d="M65.82,64.91c0,2.23,0,4.45,0,6.67,0,1.58-.63,2.13-2.34,2.14q-3,0-6.09,0c-1.57,0-2.22-.61-2.23-2q0-6.72,0-13.44c0-1.43.64-2,2.24-2q3.11,0,6.21,0c1.6,0,2.19.54,2.21,2C65.84,60.47,65.82,62.69,65.82,64.91Zm-7-5.39v10.9h3.44V59.52Z"/><path class="cls-1" d="M22.84,64.81c0-2.12,0-4.23,0-6.35,0-1.72.58-2.23,2.47-2.24h5.86c1.74,0,2.35.57,2.36,2.12q0,6.61,0,13.23c0,1.57-.64,2.14-2.35,2.15q-3,0-6.09,0c-1.57,0-2.22-.58-2.24-2C22.82,69.4,22.84,67.1,22.84,64.81ZM30,70.44V59.54h-3.5v10.9Z"/><path class="cls-1" d="M74.84,70.5c1.78,0,3.37,0,5,0,1.37,0,2.15.62,2.13,1.63s-.77,1.58-2.08,1.59q-3.22,0-6.43,0c-1.44,0-2.07-.62-2.09-1.92s0-2.79,0-4.19A1.67,1.67,0,0,1,73,65.78a1.69,1.69,0,0,1,1.83,1.81C74.87,68.51,74.84,69.44,74.84,70.5Z"/><path class="cls-1" d="M91.65,35.47a18.57,18.57,0,0,1,10.44,2.91c1,.66,1.29,1.6.69,2.39a1.82,1.82,0,0,1-2.59.29,14.46,14.46,0,0,0-8.13-2.34c-7,.13-12.54,5.16-12.89,11.63C78.83,56.59,84,62.07,90.84,62.81c9.67,1,17.15-7.63,13.86-16.06-.16-.41-.34-.81-.46-1.22a1.58,1.58,0,0,1,1-2,1.77,1.77,0,0,1,2.23.9,13,13,0,0,1,1.53,7.2c-.66,7.48-5.81,12.93-13.83,14.28-9.4,1.59-18.32-4.41-19.39-13.21-1-7.95,4-14.46,12.36-16.65A28.38,28.38,0,0,1,91.65,35.47Z"/></g></g></svg>