<svg xmlns="http://www.w3.org/2000/svg" viewBox="0 0 1041.07 367.3"><defs><style>.cls-1,.cls-2{fill:#fff;}.cls-2{stroke:#000;stroke-miterlimit:10;stroke-width:2px;fill-rule:evenodd;}</style></defs><g id="Camada_2" data-name="Camada 2"><g id="Camada_1-2" data-name="Camada 1"><rect class="cls-1" x="433.82" y="30.34" width="28.49" height="153.42"/><path class="cls-1" d="M574.87,183.76V121.29a25.64,25.64,0,1,0-51.28,0v62.47H497.73V74.17h20.6L521,81.4a48.35,48.35,0,0,1,79.78,36.83v65.53Z"/><path class="cls-1" d="M711.64,84V30.34H737.5V183.76H716.9l-4.16-11a53.28,53.28,0,0,1-37.48,15.34c-30.91,0-56.11-26.52-56.11-59.17,0-32.44,25.2-59.18,56.11-59.18A53.74,53.74,0,0,1,711.64,84m0,44.94a33.32,33.32,0,1,0-33.31,33.31A33.3,33.3,0,0,0,711.64,129"/><path class="cls-1" d="M788.8,183.76H762.93V74.17H788.8ZM787.26,57.07h-23v-23h23Z"/><path class="cls-1" d="M913.07,170.83a68.25,68.25,0,0,1-46,17.31,59.18,59.18,0,1,1,41.86-101l-18.41,18.41A32.39,32.39,0,0,0,867,95.65a33.32,33.32,0,1,0,0,66.63c10.52,0,20.16-3.07,27.4-8.33Z"/><path class="cls-1" d="M1041.07,129a59.18,59.18,0,1,1-59.19-59.18A59.36,59.36,0,0,1,1041.07,129m-25.87,0a33.32,33.32,0,1,0-33.32,33.31A33.58,33.58,0,0,0,1015.2,129"/><path class="cls-1" d="M521.94,266.24c0,22.63-18.07,41.18-40.08,41.18a39.68,39.68,0,0,1-32.21-16.82V337H439.59V227h8l2,10v4.87a39.69,39.69,0,0,1,32.21-16.81c22,0,40.08,18.54,40.08,41.17m-10.06,0a31.12,31.12,0,1,0-31.12,31.12,31.18,31.18,0,0,0,31.12-31.12"/><path class="cls-1" d="M544.26,266.24v39.29H534.2V227h8l2,10v4.87A39.9,39.9,0,0,1,564.38,227h11v8.17a31.18,31.18,0,0,0-31.11,31.11"/><path class="cls-1" d="M666.21,227v78.57H658l-1.89-10.06V290.6a39.87,39.87,0,0,1-32.21,16.82c-22.16,0-40.08-18.55-40.08-41.18s17.92-41.17,40.08-41.17a39.89,39.89,0,0,1,32.21,16.81V237L658,227Zm-10.06,39.28A31.12,31.12,0,1,0,625,297.36a31.28,31.28,0,0,0,31.12-31.12"/><polygon class="cls-1" points="789.46 195.52 753.78 305.53 723.92 305.53 688.09 195.52 709.62 195.52 738.85 285.26 768.09 195.52 789.46 195.52"/><path class="cls-1" d="M873.22,266.24a42.43,42.43,0,1,1-42.43-42.43,42.56,42.56,0,0,1,42.43,42.43m-18.54,0a23.89,23.89,0,1,0-23.89,23.89,24.07,24.07,0,0,0,23.89-23.89"/><path class="cls-1" d="M957.77,296.26a48.91,48.91,0,0,1-33,12.42,42.44,42.44,0,1,1,30-72.46l-13.2,13.21a23.27,23.27,0,0,0-16.82-7.07,23.89,23.89,0,1,0,0,47.77,33.46,33.46,0,0,0,19.64-6Z"/><path class="cls-1" d="M1041.07,266.24V271h-58a23.79,23.79,0,0,0,23.42,19.17,24.19,24.19,0,0,0,16.66-6.76l13,13.05a44.46,44.46,0,0,1-13.2,8.95,43,43,0,0,1-16.5,3.31,41.81,41.81,0,0,1-16.5-3.31,42.64,42.64,0,0,1-22.63-22.62,42.43,42.43,0,0,1-3.3-16.51c0-23.41,17.28-42.43,38.5-42.43s38.51,19,38.51,42.43m-31.44-49.47-6.6-11.94-6.6,11.94H977.89l16.5-21.37h17.28l16.51,21.37ZM984.8,255.24h35.37c-3.31-7.7-9.91-12.88-17.61-12.88s-14.46,5.18-17.76,12.88"/><path class="cls-2" d="M2,9.19C-.16,13.85,1,22,7,25.6c35.48,21,88.39,61.14,88.39,109.6,0,68.87-46,131.67-62.68,155.74a10.79,10.79,0,0,0,2,14.25,11,11,0,0,0,14.88-.88L234.13,120c20.24-20.24,10.79-57.74-16.39-64.9L18.42,1.58C10.18-.64,4.48,3.86,2,9.19"/><path class="cls-2" d="M370.52,358.11c2.16-4.66,1-12.84-5-16.41C330,320.65,277.1,280.56,277.1,232.1c0-68.87,46-131.67,62.69-155.74a10.79,10.79,0,0,0-2.06-14.25,11,11,0,0,0-14.88.88L138.39,247.31c-20.24,20.24-10.79,57.74,16.39,64.9L354.1,365.72c8.24,2.22,13.95-2.28,16.42-7.61"/><path class="cls-2" d="M7,25.6c34.83,20.66,86.46,59.68,88.33,107C94.9,115.81,92,91.45,82.26,68,71.1,41.09,52.66,19.16,42,7.92L18.42,1.58C10.18-.65,4.48,3.86,2,9.19-.16,13.85,1,22,7,25.6"/><path class="cls-2" d="M365.49,341.7C330.66,321,279,282,277.16,234.74c.46,16.75,3.4,41.11,13.1,64.53,11.16,26.94,29.6,48.87,40.22,60.11l23.62,6.34c8.24,2.22,13.94-2.28,16.41-7.61,2.17-4.66,1-12.84-5-16.41"/></g></g></svg>