<svg xmlns="http://www.w3.org/2000/svg" viewBox="0 0 450.49 161.1"><defs><style>.cls-1,.cls-3{fill:#fff;}.cls-2,.cls-4{fill:#4cbeec;}.cls-3,.cls-4{fill-rule:evenodd;}</style></defs><g id="Camada_2" data-name="Camada 2"><g id="Camada_1-2" data-name="Camada 1"><path class="cls-1" d="M3.27,50.29l2.95-6.21c4.14,3.74,11.23,6.45,18.4,6.45,9.65,0,13.79-3.74,13.79-8.6,0-13.63-33.79-5-33.79-25.74C4.62,7.58,11.32.25,26,.25,32.51.25,39.29,2,43.91,5.19l-2.63,6.38A28.8,28.8,0,0,0,26,7c-9.48,0-13.55,4-13.55,8.85,0,13.63,33.79,5.1,33.79,25.58,0,8.53-6.85,15.86-21.6,15.86C16.1,57.31,7.73,54.44,3.27,50.29Z"/><path class="cls-1" d="M81.27,7.82H62.15V.89h46.14V7.82H89.16V56.67H81.27Z"/><path class="cls-1" d="M128.6,32.6V.89h8v31.4c0,12.35,5.66,17.93,15.7,17.93S168,44.64,168,32.29V.89h7.73V32.6c0,16.18-8.84,24.71-23.58,24.71S128.6,48.78,128.6,32.6Z"/><path class="cls-1" d="M205.25.89h23.51c17.93,0,30.12,11.31,30.12,27.89s-12.19,27.89-30.12,27.89H205.25Zm23,48.85c13.79,0,22.63-8.45,22.63-21s-8.84-21-22.63-21H213.22V49.74Z"/><path class="cls-1" d="M284.21.89h8V56.67h-8Z"/><path class="cls-1" d="M407.54,50.29l2.95-6.21c4.14,3.74,11.23,6.45,18.41,6.45,9.64,0,13.78-3.74,13.78-8.6,0-13.63-33.79-5-33.79-25.74,0-8.61,6.7-15.94,21.36-15.94,6.54,0,13.31,1.75,17.93,4.94l-2.63,6.38A28.8,28.8,0,0,0,430.25,7c-9.48,0-13.55,4-13.55,8.85,0,13.63,33.79,5.1,33.79,25.58,0,8.53-6.85,15.86-21.59,15.86C420.37,57.31,412,54.44,407.54,50.29Z"/><path class="cls-1" d="M0,113.33V71.42c0-3.21.91-4.12,4.11-4.11,13.38,0,26.76-.07,40.14.13A31.42,31.42,0,0,1,61,72.05c7.88,5,11,12.42,10.72,21.57-.21,6.36-3.6,10.9-8.12,14.86-.27.24-.57.44-.85.67-1.38,1.17-1.35,1.85.23,2.75,5,2.84,8.79,6.69,10.52,12.24,2.79,9,1.46,24.85-11.62,31.45a36.29,36.29,0,0,1-16.23,3.74c-14.15.16-28.3.08-42.45.08A2.94,2.94,0,0,1,0,156.32c-.07-1.4,0-2.8,0-4.2Zm35.12,23h0c2.3,0,4.61.06,6.91,0,4.13-.12,7.24-4.23,6.08-8a7.16,7.16,0,0,0-7.07-5.27c-4.2,0-8.4,0-12.61,0-2.26,0-3.45,1.16-3.48,3.39s0,4.33,0,6.5a3.08,3.08,0,0,0,3.39,3.35C30.61,136.32,32.87,136.3,35.13,136.3ZM34.06,90.45c-2,0-4,0-6,0a3,3,0,0,0-3.13,3c-.06,1.94-.06,3.89,0,5.83a2.89,2.89,0,0,0,2.94,2.93c4,.06,8.05.11,12.06,0,3.07-.1,5.42-3.07,5.28-6.41a5.91,5.91,0,0,0-5.63-5.37C37.77,90.44,35.92,90.45,34.06,90.45Z"/><path class="cls-1" d="M175.51,113.25c0-8.81,0-17.63,0-26.44a3.6,3.6,0,0,1,.84-2.47c11.54-14.25,26.48-20.83,44.61-18.08C239.6,69.09,252.56,80,259,97.68c10.19,28.22-8.33,57.84-36.89,62.64-18.59,3.12-33.92-3.35-45.79-18a3.41,3.41,0,0,1-.79-2.34C175.52,131.07,175.51,122.16,175.51,113.25Zm38.74,23.89a16.51,16.51,0,0,0,4-.41c15-3.23,23-20.18,16-34.09-5-10-16.33-15.16-26.46-12A23.93,23.93,0,0,0,192,118.84C194.56,129.54,203.74,137.15,214.25,137.14Z"/><path class="cls-1" d="M333,129.23a68.94,68.94,0,0,0,12.42,6,32,32,0,0,0,16.27,1.68,9.88,9.88,0,0,0,4.26-1.66c3.11-2.29,2.74-6.17-.77-7.73-2.8-1.25-5.85-1.44-8.82-2-7-1.35-14.18-2.27-20.88-5.08a2.75,2.75,0,0,1-2-3q.12-22.92,0-45.85a2.07,2.07,0,0,1,1.62-2.3,56,56,0,0,1,22.68-3c11.14.55,21,4.58,29.88,11.16,2.69,2,2.91,3.31,1,6-3,4.22-5.92,8.44-8.89,12.65-1.46,2.08-2.92,2.38-5.08,1-5.62-3.5-11.58-6.13-18.21-6.93a33.52,33.52,0,0,0-9.33.13,6.85,6.85,0,0,0-3,1.18,3.31,3.31,0,0,0,0,5.75,24.91,24.91,0,0,0,6.42,2.83c4.43,1.48,9.09,1.94,13.62,3,6,1.39,11.91,3,17.05,6.67,7.33,5.16,11.5,12,11.72,21.18.18,7.12-1.17,13.76-5.83,19.4a27.48,27.48,0,0,1-16,9.27c-16.58,3.54-32.33,1.48-47-7.43-1-.6-1.16-.91-.31-1.91a40.08,40.08,0,0,0,8.82-19.38c.05-.27.11-.53.17-.8S332.89,129.59,333,129.23Z"/><path class="cls-1" d="M381.76,159.18a37.58,37.58,0,0,0,5.53-4c5.79-5.4,8.47-12.24,9.09-20a31.94,31.94,0,0,0-2.15-15.3c-3.13-7.3-8.61-12.39-15.65-15.86a1.61,1.61,0,0,1-1.1-1.75c0-.77.24-1.12,1-1.26a5.87,5.87,0,0,0,3.82-2.61c3.28-4.66,6.56-9.31,9.8-14a6.65,6.65,0,0,0-1.47-9.18,65.47,65.47,0,0,0-10.76-6.8c-.3-.15-.7-.2-.89-.64a2.39,2.39,0,0,1,1.86-.47q31.68,0,63.36,0c2.36,0,3.42,1.13,3.43,3.55v16c0,2.42-1.15,3.58-3.57,3.58H406.51c-3.16,0-4.08.93-4.08,4.15v3.25c0,2.89,1,4,3.9,4h32.16c.4,0,.81,0,1.22,0a2.82,2.82,0,0,1,2.85,2.84q.06,8.82,0,17.64c0,1.85-1.3,2.89-3.37,2.89q-15.19,0-30.39,0c-1,0-2.08,0-3.12,0a3,3,0,0,0-3.24,3.21c0,1.36,0,2.72,0,4.07,0,2.42,1.16,3.55,3.61,3.56h38.39a3,3,0,0,1,3.22,3.22c0,5.65,0,11.31,0,17a3,3,0,0,1-3.23,3.19h-62C382.21,159.41,382,159.5,381.76,159.18Z"/><path class="cls-1" d="M330,97.65c0,8.1,0,16.19,0,24.29,0,9.05-2.23,17.46-7.86,24.72-5.74,7.41-13.47,11.64-22.58,13.36-9.87,1.86-19.53,1.17-28.78-3.05a34.89,34.89,0,0,1-14.53-12.27,1.85,1.85,0,0,1,0-2.49,50.76,50.76,0,0,0-2.43-61.08,32.46,32.46,0,0,0-3-3.31A3.3,3.3,0,0,1,249.61,75c.09-1.4,0-2.81,0-4.21A3,3,0,0,1,253,67.41h17.77c2.75,0,3.78,1,3.78,3.74q0,25.09,0,50.2a18,18,0,0,0,2.22,9.38,15.19,15.19,0,0,0,16,6.89,14.36,14.36,0,0,0,11.92-12.12,28.16,28.16,0,0,0,.29-4.59q0-24.76,0-49.52a4.3,4.3,0,0,1,.6-2.72,3.14,3.14,0,0,1,2.71-1.27h18.32c2.18,0,3.3,1.15,3.31,3.38Q330,84.21,330,97.65Z"/><path class="cls-2" d="M77.45,139.09A46.38,46.38,0,0,0,84,148.8a1.24,1.24,0,0,1,0,1.9,40.07,40.07,0,0,0-5.46,7.72,1.75,1.75,0,0,1-1.83,1c-1.48-.08-3,0-4.47,0a2.57,2.57,0,0,1-2.5-1.76c-.4-1.17-.77-2.56.18-3.59a27.45,27.45,0,0,0,7.31-14.24A5.84,5.84,0,0,1,77.45,139.09Z"/><path class="cls-2" d="M76.78,122.59A25.87,25.87,0,0,0,70,112.52a1.22,1.22,0,0,1-.36-1,10.58,10.58,0,0,0,0-1.49A5.71,5.71,0,0,1,71,105.72c5.05-6.56,5.12-13.93,3.26-21.56a21.77,21.77,0,0,0-3.8-8,3.56,3.56,0,0,1-.81-2.49c.06-1.08,0-2.17,0-3.25a2.87,2.87,0,0,1,3-3c5.84,0,11.67,0,17.5,0a5.9,5.9,0,0,1,4.92,2.93q11.56,17,23.15,33.93l.54.79c1.32,1.86,2.61,1.85,3.91-.06q11.63-17,23.23-34a7.43,7.43,0,0,1,6.81-3.59c5.24.1,10.49,0,15.73,0q3.51,0,3.51,3.49,0,42.52,0,85.06c0,2.34-1.14,3.45-3.52,3.46-1.76,0-3.7.44-5.24-.16s-1.91-2.71-2.88-4.1a43.9,43.9,0,0,0-6.33-7.41c-.81-.74-.94-1.28.25-1.7,4.71-1.66,8.39-8.73,7.3-13.42-1.48-6.35-6.44-11.07-12.49-11.08a12.9,12.9,0,0,0-12.25,17.54c.2.48.41,1,.64,1.53a1.32,1.32,0,0,1-1-1.09c-.71-2.26-2.41-3.3-4.57-3.75-15.61-3.2-29.79-.18-42.33,9.83-2,1.58-2,1.6-3.6-.45-2.86-3.71-5.32-7.64-6.33-12.3a17.1,17.1,0,0,1-.1-6.61c.77-4.41,4.22-7.44,9.26-8.23a10.35,10.35,0,0,1,10.38,5.23,9,9,0,0,1,0,8.73c-1.65,2.85-6.07,4.81-9.53,3a5.75,5.75,0,0,1-2.77-6.72,4,4,0,0,1,4.35-2.9,1.61,1.61,0,0,1,1.5,1.33,1.55,1.55,0,0,1-.71,1.76,7.8,7.8,0,0,0-1.3,1,1.4,1.4,0,0,0-.2,1.75,1.42,1.42,0,0,0,1.57.77,4.71,4.71,0,0,0,4.52-5.44,6.16,6.16,0,0,0-5.75-5A8.31,8.31,0,0,0,83,131.83a9.84,9.84,0,0,0,7.86,7.55,5.74,5.74,0,0,0,3.09-.16c3.15-1.14,6.54-2.06,8.54-5.08a9.32,9.32,0,0,0,1.27-4.92c.29-8.35-4.06-14.1-12.48-15-5.8-.6-10.31,2.07-13.57,6.85C77.41,121.49,77.17,121.93,76.78,122.59Z"/><path class="cls-2" d="M154.11,153.74c.69.08,1.28.38,1.3,1.11A1.14,1.14,0,0,1,154.2,156a1.09,1.09,0,0,1-1.22-1.25C153,154,153.48,153.81,154.11,153.74Z"/><path class="cls-3" d="M350.87,50A22.17,22.17,0,1,1,373,27.87,22.17,22.17,0,0,1,350.87,50Zm0-50a27.88,27.88,0,1,0,27.87,27.87A27.88,27.88,0,0,0,350.87,0Z"/><path class="cls-4" d="M350.87,8.42a19.35,19.35,0,0,1,8.62,2v9.3L356.55,18l-5.68-3.28h0l-8-4.62a19.42,19.42,0,0,1,8-1.71ZM345.18,18l2.94-1.69-8.05-4.65a19.45,19.45,0,0,0-8.56,14.24l8-4.62h0L345.18,18Zm-5.68,6.45V43.67a19.46,19.46,0,0,1-8.05-14.54l8.05-4.65ZM342.25,36l2.93,1.7L350.87,41h0l8,4.62a19.53,19.53,0,0,1-16.62-.3V36Zm14.3,1.7-2.94,1.69,8.05,4.65a19.43,19.43,0,0,0,8.57-14.24l-8,4.62h0l-5.68,3.28Zm5.68-6.45V12.08a19.46,19.46,0,0,1,8,14.54Z"/></g></g></svg>