<svg xmlns="http://www.w3.org/2000/svg" viewBox="0 0 395.4 128"><defs><style>.cls-1{fill:#fff;}</style></defs><g id="Camada_2" data-name="Camada 2"><g id="Camada_1-2" data-name="Camada 1"><path class="cls-1" d="M120.08,126.73a69.29,69.29,0,0,1-28-.32,63.26,63.26,0,0,1-32.38-17.78,9.13,9.13,0,0,1-1.92-10.78,9.33,9.33,0,0,1,8.94-5.29,9.57,9.57,0,0,1,6.56,3.2c17.25,18.14,49.28,18.09,66.67-.09A9.36,9.36,0,0,1,153.25,95a9.22,9.22,0,0,1,.46,13.42,61.89,61.89,0,0,1-31.29,17.84Q121.25,126.51,120.08,126.73Z"/><path class="cls-1" d="M217.25,76.05V38.45a7.83,7.83,0,1,1,15.65,0v37.6a7.83,7.83,0,1,1-15.65,0Z"/><path class="cls-1" d="M238.79,73.65a7.08,7.08,0,0,1,7.06-7.06,6.81,6.81,0,0,1,3.57.93A20.15,20.15,0,0,0,261,70.78c2.26-.08,4.44-.84,4.44-2.86s-1.27-3.48-5.4-4c-8.59-1.15-21.56-3.57-21.56-16.51,0-8.76,7.29-16.75,22.25-16.75a41,41,0,0,1,16.13,3.18A7,7,0,0,1,274,47.14a8.32,8.32,0,0,1-3.1-.62c-4.58-1.79-7.34-2.7-10.21-2.7s-4.44,1.54-4.44,2.86c0,2,1.25,2.86,6.34,3.49,8.59,1,20.56,3.94,20.56,15.88,0,11.4-8.45,18-22.33,18-7.52,0-13.33-1.48-18.29-4.19A7,7,0,0,1,238.79,73.65Z"/><path class="cls-1" d="M185.64,115.74c0,2.86-2.11,4.5-6.33,4.5h-7.74V103.4h7.26c3.76,0,5.92,1.58,5.92,4.33a3.9,3.9,0,0,1-2.57,3.82A4,4,0,0,1,185.64,115.74Zm-12.29-10.88V111h5.36c2.7,0,4.26-1,4.26-3.06s-1.56-3.06-4.26-3.06Zm10.51,10.74c0-2.19-1.61-3.16-4.57-3.16h-5.94v6.33h5.94C182.25,118.77,183.86,117.81,183.86,115.6Z"/><path class="cls-1" d="M209.1,118.7v1.54H197.19V103.4h11.55v1.54H199v6h8.71v1.51H199v6.26Z"/><path class="cls-1" d="M234.73,103.4v16.84h-1.47l-10.83-13.67v13.67h-1.78V103.4h1.47L233,117.06V103.4Z"/><path class="cls-1" d="M258.54,118.7v1.54H246.63V103.4h11.55v1.54h-9.77v6h8.71v1.51h-8.71v6.26Z"/><path class="cls-1" d="M271.87,104.94v6.61h8.71v1.54h-8.71v7.15h-1.78V103.4h11.55v1.54Z"/><path class="cls-1" d="M296,99h2.29l-3.9,3h-1.68Zm-2.62,4.36h1.78v16.84h-1.78Z"/><path class="cls-1" d="M307.12,111.82a8.47,8.47,0,0,1,8.84-8.57,8.16,8.16,0,0,1,6.16,2.46L321,106.84a6.69,6.69,0,0,0-5-2,7,7,0,1,0,0,14,6.63,6.63,0,0,0,5-2l1.13,1.13a8.23,8.23,0,0,1-6.19,2.47A8.45,8.45,0,0,1,307.12,111.82Z"/><path class="cls-1" d="M333.69,103.4h1.78v16.84h-1.78Z"/><path class="cls-1" d="M347.2,111.82a8.85,8.85,0,1,1,8.86,8.56A8.48,8.48,0,0,1,347.2,111.82Zm15.91,0a7.08,7.08,0,1,0-7.05,7A6.83,6.83,0,0,0,363.11,111.82Z"/><path class="cls-1" d="M376.27,118.2l.69-1.38a8.29,8.29,0,0,0,5.56,2.05c3.15,0,4.53-1.32,4.53-3,0-4.62-10.38-1.78-10.38-8,0-2.48,1.93-4.62,6.21-4.62a9.56,9.56,0,0,1,5.22,1.49l-.6,1.42a8.71,8.71,0,0,0-4.62-1.39c-3.08,0-4.45,1.37-4.45,3,0,4.62,10.37,1.83,10.37,8,0,2.48-2,4.59-6.28,4.59A9.17,9.17,0,0,1,376.27,118.2Z"/><path class="cls-1" d="M25.49,18.53v-2.7a.85.85,0,0,0-1.62-.34L22,19.87a2.89,2.89,0,0,1-2.58,1.84,2.83,2.83,0,0,1-2.5-1.95l-2-4.4a.84.84,0,0,0-1.61.35v2.82a3.19,3.19,0,0,1-6.37,0V5.13a5.08,5.08,0,0,1,9.87-1.67l2.11,6.17a.53.53,0,0,0,1,0L22,3.46a5.08,5.08,0,0,1,9.87,1.67v13.4a3.19,3.19,0,0,1-6.37,0Z"/><path class="cls-1" d="M104.58,0a4.36,4.36,0,0,0-4.34,4.34V17.43a4.35,4.35,0,0,0,8.69,0V4.34A4.36,4.36,0,0,0,104.58,0Z"/><path class="cls-1" d="M351.06,73.65a7.08,7.08,0,0,1,7.05-7.06,6.81,6.81,0,0,1,3.57.93,20.17,20.17,0,0,0,11.58,3.26c2.27-.08,4.44-.84,4.44-2.86s-1.27-3.48-5.4-4c-8.59-1.15-21.55-3.57-21.55-16.51,0-8.76,7.29-16.75,22.25-16.75a41,41,0,0,1,16.12,3.18,7,7,0,0,1-2.87,13.34,8.36,8.36,0,0,1-3.1-.62c-4.57-1.79-7.34-2.7-10.2-2.7s-4.44,1.54-4.44,2.86c0,2,1.24,2.86,6.34,3.49,8.59,1,20.55,3.94,20.55,15.88,0,11.4-8.45,18-22.32,18-7.52,0-13.34-1.48-18.3-4.19A7,7,0,0,1,351.06,73.65Z"/><path class="cls-1" d="M.31,73.65a7.08,7.08,0,0,1,7.05-7.06,6.81,6.81,0,0,1,3.57.93,20.17,20.17,0,0,0,11.58,3.26c2.27-.08,4.44-.84,4.44-2.86s-1.27-3.48-5.4-4C13,62.73,0,60.31,0,47.37c0-8.76,7.29-16.75,22.25-16.75A41,41,0,0,1,38.37,33.8,7,7,0,0,1,35.5,47.14a8.36,8.36,0,0,1-3.1-.62c-4.57-1.79-7.34-2.7-10.2-2.7s-4.44,1.54-4.44,2.86c0,2,1.24,2.86,6.34,3.49,8.59,1,20.55,3.94,20.55,15.88,0,11.4-8.45,18-22.32,18C14.81,84,9,82.56,4,79.85A7,7,0,0,1,.31,73.65Z"/><path class="cls-1" d="M134.51,17.55a2.88,2.88,0,0,1,2.87-2.87,2.8,2.8,0,0,1,1.45.38,8.19,8.19,0,0,0,4.71,1.32c.92,0,1.8-.34,1.8-1.16s-.51-1.42-2.2-1.64c-3.49-.47-8.76-1.45-8.76-6.72,0-3.56,3-6.81,9.05-6.81A16.64,16.64,0,0,1,150,1.35a2.83,2.83,0,0,1-1.16,5.42,3.49,3.49,0,0,1-1.26-.25,11.51,11.51,0,0,0-4.15-1.1c-1.23,0-1.81.63-1.81,1.16,0,.82.51,1.17,2.58,1.42,3.49.43,8.36,1.61,8.36,6.46,0,4.64-3.44,7.31-9.08,7.31a14.94,14.94,0,0,1-7.44-1.7A2.85,2.85,0,0,1,134.51,17.55Z"/><path class="cls-1" d="M72.36,18.59a3.18,3.18,0,0,1-6.23.91l-.23-.76a.53.53,0,0,0-.5-.37h-7a.53.53,0,0,0-.5.37l-.23.76a3.18,3.18,0,0,1-6.22-.91,3.34,3.34,0,0,1,.18-1.1L56.67,3.78a5.58,5.58,0,0,1,10.44,0l5.06,13.71A3.34,3.34,0,0,1,72.36,18.59ZM63.9,12.4,62.77,8.83a.93.93,0,0,0-1.76,0L59.88,12.4a.53.53,0,0,0,.5.69h3A.53.53,0,0,0,63.9,12.4Z"/><path class="cls-1" d="M203.4,64c3.8-2.33,7.91-7,7.91-14.89,0-9.69-6.51-17.75-18.61-17.75H173.4c-5.35,0-8.29,3-8.29,8.29V76.05a7.83,7.83,0,0,0,15.66,0V70.18h8.58l7.31,10.52a7.82,7.82,0,1,0,12.4-9.53ZM190.07,53.53h-7.86A1.59,1.59,0,0,1,180.62,52V46.13a1.59,1.59,0,0,1,1.59-1.59h7.86c2.62,0,5.07,1.69,5.07,4.46S192.69,53.53,190.07,53.53Z"/><path class="cls-1" d="M151.39,64c3.8-2.33,7.91-7,7.91-14.89,0-9.69-6.51-17.75-18.61-17.75h-19.3c-5.35,0-8.29,3-8.29,8.29V76.05a7.83,7.83,0,1,0,15.66,0V70.18h8.58l7.31,10.52a7.82,7.82,0,1,0,12.4-9.53Zm-5.52-11.49a3,3,0,0,1-2.22,1,3.59,3.59,0,0,1-2.36-1c-3.17-2.76-7-2.75-10.22,0a3.2,3.2,0,0,1-3.38.71,3,3,0,0,1-2-2.47A3.09,3.09,0,0,1,126.82,48a13.64,13.64,0,0,1,9.49-3.69h0A13.41,13.41,0,0,1,145.54,48a3.4,3.4,0,0,1,1.17,2.38A3,3,0,0,1,145.87,52.55Z"/><path class="cls-1" d="M79.34,30.59c-15.89,0-28.15,10.83-28.15,26.7S63.45,84,79.34,84s28.16-10.83,28.16-26.7S95.24,30.59,79.34,30.59Zm9.68,22a3,3,0,0,1-2.22,1,3.59,3.59,0,0,1-2.36-1c-3.17-2.76-7-2.75-10.22,0a3.2,3.2,0,0,1-3.38.71,3,3,0,0,1-2-2.47A3.1,3.1,0,0,1,70,48a13.66,13.66,0,0,1,9.5-3.69h0A13.42,13.42,0,0,1,88.69,48a3.44,3.44,0,0,1,1.17,2.38A3,3,0,0,1,89,52.55Z"/><path class="cls-1" d="M317,30.59c-15.89,0-28.15,10.83-28.15,26.7S301.12,84,317,84s28.16-10.83,28.16-26.7S332.9,30.59,317,30.59Zm1.52,23.26a4.76,4.76,0,1,1,4.76-4.76A4.76,4.76,0,0,1,318.53,53.85Z"/></g></g></svg>