<svg xmlns="http://www.w3.org/2000/svg" viewBox="0 0 467.16 200"><defs><style>.cls-1,.cls-2{fill:#1e1e1c;}.cls-1,.cls-3{fill-rule:evenodd;}.cls-3{fill:#018f3f;}</style></defs><g id="Camada_2" data-name="Camada 2"><g id="Camada_1-2" data-name="Camada 1"><path class="cls-1" d="M205.16,138.81h19c5.94,0,11.9-1.77,15-4.73s3-5.54,4-10.5c.27-1.25,1.31-3.37-.4-3.37H210.37c-2.41,0-.8,4.37,1.89,4.8,2.24.36,10.31-.27,13.33.07,6.51.72,3.67,8.89-2.2,8.89H207.76c-6.65,0-3.43-7.18-2-14.29a20.69,20.69,0,0,1,1.37-5.32,4.68,4.68,0,0,1,4-2.71H229a2.62,2.62,0,0,1,2.8,2c.65,2.44-.47,2.5,2.75,2.46s6.71,0,10.08,0c.24-2.9,0-4.8-3.41-7a18.45,18.45,0,0,0-9.25-2.29h-22.7a22.31,22.31,0,0,0-12,4c-4.07,3.25-3.63,5.73-4.87,11.51-.9,4.23-3,9.46.21,12.63,2.83,2.79,8.36,3.83,12.54,3.83m-74.06,0c3.86,0,7.6-.67,10.18-2.09,6.28-3.47,5.41-18.17,8.05-22.47.66-1.07,2-2.6,3.73-2.6,21.42,0,22.57-2.08,20.09,8.56-4.59,0-9.18,0-13.77,0-2.49,0-4.35-.18-5.95.74a6.4,6.4,0,0,0-3,4.09H172c0,2.25-4.59,12.59,9.67,13.77.62-1.16,5.21-21.42,5.21-24.19,0-5.06-6.64-7.81-11.91-7.81H150.82a19.21,19.21,0,0,0-12.62,4.87l-.19.18-.54.58C135.31,115,134,124.32,133.3,128Zm77-48.38c1.54-6.61,3.74-12.2-1.11-15.64-3-2.13-4.88-2.22-8.2-2.22a30.59,30.59,0,0,1-1,5.74c-.41,2-.66,3.57-1.12,5.57-.9,3.88-1.51,7.65-2.38,11.39,6.33,0,36,.39,39.62-.2,5.36-.86,10.87-3.15,12.74-7.35.92-2.06,1.36-5.88,1.9-8.15,1.79-7.54,3.63-12.5-5.74-15.33-5.52-1.66-34.82-1-41.82-1-1.15,4.92,3.28,4.85,6,4.84,3.56,0,27.16-.5,28.88.52,3.12,1.86.44,8.58-.57,13.65C233.2,93,232.47,90.43,208.14,90.43ZM66.35,138.81c6.54,0,13.16-3.44,14.74-9.81s1.82-17.35,7.21-17.35h23.82c4.57,0,1.6,8.95,1.21,10.88-.43,2.16-1.58,6.54-1.58,8.47,0,4.8,5.9,7.7,10.79,7.81.77-1.6,4.84-21.48,4.84-24.93,0-4.62-7.53-7.07-12.65-7.07H81.6c-2.67,0-6.37,2.33-7.66,3.87-2.41,2.86-2.67,4-3.65,8.26ZM288.89,95.27H311.6c6.54,0,15.53-3.62,16-9.3H315a4.9,4.9,0,0,1-5.22,4.46H292.62c-5.12,0-2.48-7.15-1.52-11.94,2.46-12.3,1-10.39,22.73-10.39,4.44,0,4.09,2.84,4.09,4.47h12.65c0-7.52-7-9.3-15.25-9.3-10.51,0-21.78-1.18-29.9,2.84-6.69,3.32-6.12,7.76-8,17-.51,2.55-1.24,4.77-.09,7C279,93.14,284.13,95.27,288.89,95.27ZM142.26,87.83c0,4.9,7.82,7.44,12.29,7.44h31.63c0-1.56,0-3.32-1.72-4.23-3.58-1.91-25.71.69-27.74-1.29-2.52-2.45-.82-7-.28-9.71.43-2.14.84-4.17,1.29-6.52,1.08-5.59,3.62-5.42,9.84-5.42,3.48,0,19.92.63,22.33-.74.85-.48,4.27-4.09,1.49-4.09-8.65,0-29.9-.86-37,1.34-10.63,3.31-9.11,8.71-11.33,18.08A19.41,19.41,0,0,0,142.26,87.83ZM250.19,131c0,5.45,8.25,7.81,14.14,7.81H293c1.91,0,1.57-4.78-3-4.86l-20.49,0c-2,0-3.33.27-4.56-.65-3-2.25-1.25-6.94-.68-9.81,2.84-14.19.22-11.88,25.71-11.87,3.82,0,9.1.85,10.42-4.84-12.91,0-35.28-2.18-43.07,3.44-4.26,3.08-4,4.68-4.94,8.84ZM64.48,106.81c-7.66,0-13.36,3.23-15,10.64L45.64,136c-.45,2.1-1.61,3.84,4.93,1.93a14.13,14.13,0,0,0,7.65-5c2.51-3.08,4-15.65,5.15-20.53A45.51,45.51,0,0,0,64.48,106.81ZM253.91,95.27c7.37,0,13.32-3.4,14.8-10.51.45-2.16,4.55-20.46,3.88-21.13s-3.9.27-5,.61c-9.68,2.9-9.39,9.16-11.55,20.08ZM88.3,138.81c5-.11,10.14-2.46,12.55-5.31,1.89-2.23,3.83-11.1,3.83-14.41,0-4.12-4.83-3.35-7.82-3.35-5.63,0-6.08,9.73-7.35,16.1A40.22,40.22,0,0,0,88.3,138.81Zm9.31-43.54c6.31,0,12.47-3.23,14.19-7.76.76-2,3-11.15,1.82-13.45-1.48-2.84-9.42-2.68-11.65,1-1,1.61-2.53,10.86-3,13.35Zm225.15,43.54c5.12-.11,10.08-2.39,12.55-5.31,1.95-2.3,6.57-17.76,1.22-17.76-9.09,0-9.16-.15-11.13,9.71ZM160.13,81.87h23.44c3.09,0,5.72-1.92,6-4.83-2.61,0-24-.25-25.53.15A5.13,5.13,0,0,0,160.13,81.87ZM268.05,125c2.61,0,24,.25,25.53-.15a5.13,5.13,0,0,0,3.87-4.68H274.38C271,120.21,268.31,121.94,268.05,125ZM51.83,100.48c0,2.21,3.27,2.61,5.21,2.61,9.4,0,17.64-9.68,6.7-9.68C59.62,93.41,51.83,96.81,51.83,100.48ZM22.92,65l62.78.13c-1.64,2.24-6.68,1.49-11.17,1.49H35.83a6.52,6.52,0,0,0,.74,2.6h45l-1.21,3.29L75.65,95.27a18.36,18.36,0,0,0,11-3.49c5.91-4.43,4.5-17.34,7.51-21.52,2.19-3.05,7.65-2.16,12.73-2.16,20.23,0,18.66-2.58,14.67,16.53C120,92,125.36,95.27,132.22,95.27c.17-2.11,1-5.37,1.45-7.47.53-2.66,1-5.1,1.55-7.76,1.08-5.38,3.53-10.51-1.13-13.81-3.85-2.73-9.06-3-15.64-3l-93.37,0Zm299.84,46.65h23.45c4.77,0,2.68,6.09,2.26,8.21-1.46,7.3-4.39,13.62,2.07,17.22a16.32,16.32,0,0,0,7.95,1.73h83c1.26,0,1.11-.65,1.11-1.86,0-.58-.56-.91-1.45-1.08a13.21,13.21,0,0,0-2.33-.18c-27-.18-54.09.15-81.07.15.47-2,.35-1.5,5.21-1.49H467.16a2.44,2.44,0,0,1-.38-1.49H358.49c.1-4.8,3.35-13.63,3.35-19,0-4.35-7.13-7.07-11.91-7.07H316.81c-7.23,0-10.71,6-11.94,12.25l-3,14.84c-.13.53-.37,1.67-.54,2.48-.32,1.48-1.75,3.51,4.93,1.55,10.27-3,9.43-10.19,11.46-19.07C318.08,117.19,318.67,111.65,322.76,111.65Z"/><path class="cls-2" d="M463.24,161.19l-.49,2.4H455.9a19.5,19.5,0,0,0-2,.07,1.58,1.58,0,0,0-.81.36,3,3,0,0,0-.88,1.73c-.15.76-.07,1.26.26,1.5a4.92,4.92,0,0,0,2.35.35h2.06q2.52,0,3.09.09a2.14,2.14,0,0,1,1,.38c.89.63,1.15,1.9.76,3.8q-.63,3.12-2.79,4.1a4.56,4.56,0,0,1-1.33.36,25,25,0,0,1-2.54.08h-8l.48-2.4h7.32a10,10,0,0,0,2.61-.2,2.13,2.13,0,0,0,1.09-1.7c.19-1,0-1.53-.59-1.69a12.23,12.23,0,0,0-2.17-.1h-1.23a22.76,22.76,0,0,1-3.28-.15,2.39,2.39,0,0,1-1.37-.68,3.87,3.87,0,0,1-.84-3.79,6,6,0,0,1,1-2.37,4.75,4.75,0,0,1,1.77-1.53,9,9,0,0,1,3.77-.61Zm-31.88,2.37a5.17,5.17,0,0,0-3.68,1.38,7.21,7.21,0,0,0-2,3.93,5.17,5.17,0,0,0,.23,3.63,3.47,3.47,0,0,0,3.25,1.54q4.69,0,5.73-5.09a5.23,5.23,0,0,0-.39-4A3.54,3.54,0,0,0,431.36,163.56Zm.7-2.53q3.66,0,5.27,2.11c1,1.3,1.25,3.22.74,5.73a9.64,9.64,0,0,1-3.07,5.55,9.26,9.26,0,0,1-6.26,2.15c-2.65,0-4.5-.73-5.57-2.19-.92-1.24-1.14-3-.67-5.31a10.41,10.41,0,0,1,3.15-5.83A9.26,9.26,0,0,1,432.06,161Zm-18,.16-.49,2.4h-4.84a6.75,6.75,0,0,0-2.35.34,3.87,3.87,0,0,0-1.6,1.1,8.14,8.14,0,0,0-1.65,3.79c-.41,2-.28,3.41.39,4.26q.74.93,3.09.93h4.84l-.49,2.4h-4.83a11.92,11.92,0,0,1-3.62-.41,4,4,0,0,1-2.62-3.19,9,9,0,0,1,0-3.73,10.47,10.47,0,0,1,3.19-5.88,7.59,7.59,0,0,1,2.62-1.55,11.18,11.18,0,0,1,3.49-.46Zm-26.31-2.47.65-3.16h3l-.64,3.16Zm-.5,2.47h3l-3.09,15.22h-3Zm-18.42,0,1.15-5.63h3l-1.14,5.63h4.43l-.49,2.4h-4.43l-1.63,8a8,8,0,0,0-.19,1.39.84.84,0,0,0,.24.62c.26.28,1,.42,2.12.42h1.78l-.48,2.39h-2.94a9.44,9.44,0,0,1-2.18-.18,2.09,2.09,0,0,1-1.13-.72,2.24,2.24,0,0,1-.54-1.35,9.17,9.17,0,0,1,.24-2.31l1.68-8.26H365.4l.49-2.4Zm-13.13,0-.49,2.4h-6.86a19.65,19.65,0,0,0-2,.07,1.58,1.58,0,0,0-.81.36,3,3,0,0,0-.87,1.73c-.16.76-.07,1.26.25,1.5a5,5,0,0,0,2.35.35h2.06q2.52,0,3.09.09a2.14,2.14,0,0,1,1,.38c.9.63,1.15,1.9.76,3.8q-.63,3.12-2.79,4.1a4.4,4.4,0,0,1-1.33.36,25,25,0,0,1-2.54.08h-8l.49-2.4h7.31a9.92,9.92,0,0,0,2.61-.2,2.11,2.11,0,0,0,1.09-1.7c.2-1,0-1.53-.59-1.69a12.16,12.16,0,0,0-2.16-.1H347a22.49,22.49,0,0,1-3.27-.15,2.42,2.42,0,0,1-1.38-.68,3.87,3.87,0,0,1-.84-3.79,6.15,6.15,0,0,1,1-2.37,4.7,4.7,0,0,1,1.78-1.53,9,9,0,0,1,3.76-.61Zm-33-1.88,3.71-3.94h3.13L325,159.31Zm1.1,4.25a5.14,5.14,0,0,0-3.68,1.38,7.08,7.08,0,0,0-2,3.93,5.12,5.12,0,0,0,.23,3.63,3.45,3.45,0,0,0,3.25,1.54q4.68,0,5.72-5.09a5.23,5.23,0,0,0-.39-4A3.51,3.51,0,0,0,323.78,163.56Zm.69-2.53c2.45,0,4.2.7,5.27,2.11s1.25,3.22.74,5.73a9.63,9.63,0,0,1-3.06,5.55,9.3,9.3,0,0,1-6.27,2.15q-4,0-5.56-2.19c-.92-1.24-1.15-3-.68-5.31a10.41,10.41,0,0,1,3.15-5.83A9.3,9.3,0,0,1,324.47,161Zm-32.15.16h7a8.79,8.79,0,0,1,3.1.43,3.08,3.08,0,0,1,1.64,1.45c.49.86.54,2.29.16,4.28l-1.84,9.06h-3l1.78-8.74c.31-1.53.26-2.59-.14-3.18s-1.28-.9-2.63-.9h-3.53l-2.6,12.82h-3Zm-15.77,2.4h-3a8.76,8.76,0,0,0-2.77.31,4.62,4.62,0,0,0-2.48,2.5,10.75,10.75,0,0,0-.93,2.73,5.25,5.25,0,0,0,.31,3.69,2,2,0,0,0,1.08.93,6.72,6.72,0,0,0,2.16.26h3.55Zm3.52-2.4-2.74,13.49c-.42,2-.72,3.3-.9,3.82a3.61,3.61,0,0,1-.94,1.4,4.52,4.52,0,0,1-2.05,1.06,15.93,15.93,0,0,1-3.57.3h-6.5l.49-2.41h6.95a8.27,8.27,0,0,0,1.82-.13,1.27,1.27,0,0,0,.78-.54,6.2,6.2,0,0,0,.54-1.77h-3.27a21.56,21.56,0,0,1-3.14-.15,4.27,4.27,0,0,1-1.68-.73c-1.75-1.18-2.31-3.3-1.68-6.39a10.72,10.72,0,0,1,3.16-6,6.44,6.44,0,0,1,2.59-1.52,14,14,0,0,1,3.85-.42ZM250,169.53h-5a5.46,5.46,0,0,0-2,.28,2.48,2.48,0,0,0-1.43,2,1.73,1.73,0,0,0,.33,1.72,3.47,3.47,0,0,0,2.19.5h5Zm.49-2.4c.31-1.54.32-2.52,0-2.93s-1.21-.61-2.71-.61h-7.15l.49-2.4h7.8a11.1,11.1,0,0,1,3,.31,2.56,2.56,0,0,1,1.5,1.09,3,3,0,0,1,.44,1.56,12.21,12.21,0,0,1-.33,2.64l-2,9.62H244a17.46,17.46,0,0,1-2.89-.15,3.36,3.36,0,0,1-2.36-1.48,4,4,0,0,1-.32-2.95,6.58,6.58,0,0,1,1-2.39,4.93,4.93,0,0,1,1.73-1.62,8.64,8.64,0,0,1,4-.69Zm-23.85-8.41.65-3.16h3l-.64,3.16Zm-.5,2.47h3l-3.09,15.22h-3Zm-25.67-3-3.15,15.54h5.31a6.8,6.8,0,0,0,5.37-2.07,11.54,11.54,0,0,0,2.41-5.45c.55-2.7.46-4.75-.25-6.14a3,3,0,0,0-1.58-1.45,8.26,8.26,0,0,0-3-.43Zm-2.77-2.66h8a17,17,0,0,1,4.74.47,5.64,5.64,0,0,1,3.64,4.05,11.92,11.92,0,0,1,0,5.71q-1.42,7-5.69,9.39a8.93,8.93,0,0,1-2.64,1,22.68,22.68,0,0,1-3.95.25h-8.29Z"/><path class="cls-2" d="M455.22,143h1.41a2.25,2.25,0,0,0,1.37-.3,1,1,0,0,0,.37-.79.91.91,0,0,0-.18-.56,1,1,0,0,0-.49-.38,3.76,3.76,0,0,0-1.16-.12h-1.32Zm-1.16,4v-7.16h2.47a6.13,6.13,0,0,1,1.83.2,1.72,1.72,0,0,1,.9.69,1.8,1.8,0,0,1,.34,1,1.91,1.91,0,0,1-.57,1.37,2.21,2.21,0,0,1-1.49.65,1.88,1.88,0,0,1,.61.38,8.3,8.3,0,0,1,1.06,1.42l.88,1.4h-1.41l-.64-1.12a5.64,5.64,0,0,0-1.21-1.67,1.4,1.4,0,0,0-.93-.24h-.68v3ZM457,137.8a5.7,5.7,0,0,0-2.74.72,5.22,5.22,0,0,0-2.08,2.06,5.54,5.54,0,0,0,0,5.55,5.3,5.3,0,0,0,2.06,2.06,5.65,5.65,0,0,0,2.77.73,5.59,5.59,0,0,0,2.76-.73,5.23,5.23,0,0,0,2.06-2.06,5.59,5.59,0,0,0,.73-2.76,5.71,5.71,0,0,0-.74-2.79,5.16,5.16,0,0,0-2.08-2.06A5.69,5.69,0,0,0,457,137.8Zm0-1.1a6.9,6.9,0,0,1,3.28.86,6.2,6.2,0,0,1,2.49,2.46,6.86,6.86,0,0,1,.89,3.35,6.73,6.73,0,0,1-.88,3.31,6.28,6.28,0,0,1-2.46,2.47,6.7,6.7,0,0,1-6.64,0,6.24,6.24,0,0,1-2.47-2.47,6.84,6.84,0,0,1-.88-3.31,6.77,6.77,0,0,1,.9-3.35,6.2,6.2,0,0,1,2.49-2.46A6.9,6.9,0,0,1,457,136.7Z"/><path class="cls-3" d="M83.46,142.16c-2.8,0-8.44-.57-10.42.37C44,161,22,144.28,15.73,139.93c1.55,4.5,6,13,8.33,14.75a53.42,53.42,0,0,0,59.4-12.52M14.24,63.27c4-2.65,3.11-2.85,9.89-6.87,1.39-.82,2.28-1.11,3.76-1.82,11.93-5.74,27.57-5,39.2.87,1.14.56,2.36,1.45,3.37,1.84,2.16.82,7.13.39,10,.39-.59-2.18-12.29-8.41-15-9.51-13.82-5.53-30-5.86-43.53.81C19.37,50.23,14.88,60.54,14.24,63.27Zm7.82-15.63c16.85-6.36,35-8.8,59.44,9.44a4.23,4.23,0,0,0,1.59.6c-.24-1.1-.36-1.24-.62-1.51-11.84-12.42-31-21.32-51.54-17.8-1.1.19-1.88.48-3,.74C26.15,41.48,22.82,44.8,22.06,47.64ZM25.32,156.5c1,1.93,5.34,8.16,7.43,8.27,23.82,1.2,40.39-6.69,52.47-21.15a3.11,3.11,0,0,0,.85-1.46,2.85,2.85,0,0,0-1.85.77A54.47,54.47,0,0,1,25.32,156.5Zm41-12.48.11-.11S66.31,144,66.35,144ZM63,56.2l.72.42L63,56.2c-.08-.06-.2-.21-.24-.14l-2-.94a44.58,44.58,0,0,0-33.58,2.06C-28.14,86.72,9.61,168,63.8,145.37A5.51,5.51,0,0,0,66,144c-4,.34-16.57,6.87-33.5-1.48C-6.66,123.25.85,63.66,41.57,55.61a48.79,48.79,0,0,1,11-.91C57.59,54.68,60.73,56.14,63,56.2Zm-33.5-19c23.24-2.28,36.92,1.62,55.56,19.91a2.26,2.26,0,0,0,1.75.55h97.88c6.39,0-30.86-54.06-74.43-54.06v-1c31.1,0,64.68,22.4,78.52,50.25.93,1.87,1.62,4.83,4.1,4.83,1.67,0,.8-1.1.28-2.09C177,25,147.11,0,111,0,77.58,0,52.49,11.35,30.05,36.05A2.48,2.48,0,0,0,29.5,37.22Zm3.72,129.13C81.66,219.76,166,208.05,194,142.16h-3c-18.1,33.35-47.07,55.08-88.58,55.08,37.84-3.72,67-19.43,83-55.08H87.93C72.16,162.23,54.19,166.35,33.22,166.35Z"/></g></g></svg>