<svg xmlns="http://www.w3.org/2000/svg" viewBox="0 0 104.53 103.69"><defs><style>.cls-1{fill:#11afe4;}</style></defs><g id="Camada_2" data-name="Camada 2"><g id="Camada_1-2" data-name="Camada 1"><path class="cls-1" d="M64,103.69,32.21,85.88c-4.79-2.68-9.56-5.38-14.37-8a4.33,4.33,0,0,0-1.95-.49c-4.24,0-8.49,0-12.73,0C1,77.33,0,76.41,0,74.33c0-3.61,0-7.22,0-10.83,0-.9.25-1.62,1.22-1.88s1.9.53,1.91,1.81c0,2.53,0,5.06,0,7.6v3.2h54V3.11h-54v1.3q0,25.26,0,50.53a8.16,8.16,0,0,1,0,1.21,1.45,1.45,0,0,1-1.56,1.33A1.43,1.43,0,0,1,0,56.08c0-.33,0-.67,0-1Q0,29.26,0,3.43C0,.77.81,0,3.55,0H56.88c2.61,0,3.48.85,3.48,3.41s0,5.33,0,8a1.39,1.39,0,0,0,.84,1.43Q81.88,24.39,102.54,36c2.17,1.21,2.51,2.4,1.28,4.47q-4,6.8-8.1,13.58c-.25.42-.59,1-1,1.08A2.41,2.41,0,0,1,93,54.89a1.28,1.28,0,0,1-.29-1.82c.51-.92,1.06-1.82,1.6-2.73l6.89-11.58L60.36,15.87c0,2.59.17,5,0,7.35-.17,2,.55,3,2.32,3.88,3.76,1.91,7.37,4.07,11,6.13a8,8,0,0,1,.89.53,1.37,1.37,0,0,1,.46,2,1.46,1.46,0,0,1-2,.63,12.94,12.94,0,0,1-1.56-.82l-10.1-5.67c-.29-.17-.59-.3-1-.52,0,1.17,0,2.21,0,3.24,0,.28.37.61.66.78,1.36.8,2.76,1.55,4.14,2.34,1.06.6,1.39,1.42.93,2.24s-1.39,1-2.53.36l-3.24-1.79v3.28c0,1.93,0,3.85,0,5.78a1.25,1.25,0,0,0,.76,1.26c5.61,3.12,11.2,6.27,16.8,9.4,2,1.15,2.4,2.35,1.21,4.35q-7.94,13.35-15.9,26.71c-1.15,1.94-2.41,2.26-4.41,1.14L39.76,77.76a2.6,2.6,0,0,0-1.15-.4c-5,0-9.94,0-15,.19l40.89,22.9c.25-.41.5-.8.73-1.19L88.52,60.1c.16-.26.31-.53.48-.79a1.6,1.6,0,0,1,2.15-.63,1.48,1.48,0,0,1,.57,2.11c-.11.21-.24.41-.36.61q-12,20.16-24,40.29a12.19,12.19,0,0,1-1.94,2Zm-3.6-53.78v1.35q0,11.49,0,23c0,2.13-1,3.1-3.19,3.1H45.75l-.06.21,14.78,8.28,16-26.9Z"/><path class="cls-1" d="M30.2,68.65H12.25c-2.41,0-3.32-.9-3.32-3.26q0-17.36,0-34.73c0-2.3.91-3.2,3.26-3.2q18,0,35.9,0c2.43,0,3.33.89,3.33,3.25V65.44c0,2.28-1,3.21-3.27,3.21Zm18-38.07H12.12v35h36.1Z"/><path class="cls-1" d="M44.67,7.87a5.33,5.33,0,0,1,5.41,5.3,5.45,5.45,0,0,1-10.9-.07A5.38,5.38,0,0,1,44.67,7.87Zm0,3a2.28,2.28,0,0,0-2.33,2.24,2.33,2.33,0,0,0,2.36,2.23,2.29,2.29,0,0,0,2.26-2.21A2.24,2.24,0,0,0,44.65,10.91Z"/><path class="cls-1" d="M90.57,41.37a5.45,5.45,0,0,1-10.9,0,5.45,5.45,0,0,1,10.9,0Zm-3.15.08a2.29,2.29,0,0,0-2.25-2.31,2.38,2.38,0,0,0-2.37,2.22,2.32,2.32,0,0,0,2.28,2.28A2.24,2.24,0,0,0,87.42,41.45Z"/><path class="cls-1" d="M22,14.63H13c-1.27,0-1.95-.51-2-1.44s.7-1.59,2-1.59H31c1.21,0,1.94.61,1.94,1.53s-.7,1.5-1.93,1.5Z"/><path class="cls-1" d="M16.25,20.88c-1.18,0-2.36,0-3.55,0A1.52,1.52,0,0,1,11,19.43a1.54,1.54,0,0,1,1.67-1.57c2.36,0,4.73,0,7.09,0a1.58,1.58,0,0,1,1.73,1.52,1.56,1.56,0,0,1-1.73,1.5C18.61,20.9,17.43,20.88,16.25,20.88Z"/><path class="cls-1" d="M31.43,49.24a15.62,15.62,0,0,1,3.29-1.58,4.48,4.48,0,0,1,5,2.14c1.53,2.37,3,4.77,4.48,7.18a2.52,2.52,0,0,1-2.3,4Q30,61,18.21,61a2.52,2.52,0,0,1-2.44-3.73q3.32-7.19,6.7-14.35a3.28,3.28,0,0,1,6,0C29.48,45,30.48,47.21,31.43,49.24Zm-6-5.42c-2.26,4.82-4.4,9.41-6.56,14H32Zm15.66,14.1c-1.45-2.32-2.76-4.46-4.12-6.58a1.66,1.66,0,0,0-2.19-.57c-.78.4-1.67,2.08-1.4,2.69.6,1.32,1.21,2.65,1.86,3.95a1.07,1.07,0,0,0,.76.49C37.65,57.94,39.28,57.92,41.12,57.92Z"/><path class="cls-1" d="M30.7,39.87a4.91,4.91,0,0,1,9.82.09,4.9,4.9,0,0,1-5,4.73A4.84,4.84,0,0,1,30.7,39.87Zm6.68.07a1.74,1.74,0,0,0-1.79-1.73,1.69,1.69,0,0,0-1.74,1.64,1.72,1.72,0,0,0,1.71,1.79A1.79,1.79,0,0,0,37.38,39.94Z"/></g></g></svg>