<svg xmlns="http://www.w3.org/2000/svg" viewBox="0 0 110.56 107.71"><defs><style>.cls-1{fill:#dc0073;}</style></defs><g id="Camada_2" data-name="Camada 2"><g id="Camada_1-2" data-name="Camada 1"><path class="cls-1" d="M0,91.5a17.17,17.17,0,0,1,3.74-7.7A15.68,15.68,0,0,1,29.21,86a1.38,1.38,0,0,0,.81.7,10.93,10.93,0,0,1,9.44,8,6,6,0,0,0,4.95-5.25c.16-2.68,0-5.38,0-8.2H42.6a2.19,2.19,0,0,1-2.45-2.11c-.29-2.08-.58-4.15-.89-6.31-3.22,0-6.38,0-9.54,0a6.77,6.77,0,0,1-6.82-7,7.09,7.09,0,0,1,2-4.43c3.48-3.93,6.92-7.89,10.42-11.81a2.06,2.06,0,0,0,.55-1.79,106.5,106.5,0,0,1-1.27-11.49C34.42,22.81,39.54,11.68,50.08,3c1-.86,2.25-1.52,3.32-2.34,1.31-1,2.48-.84,3.83,0A39.78,39.78,0,0,1,72,17.59a40.87,40.87,0,0,1,3.44,24.53c-.3,1.91-.56,3.82-.75,5.74a2.23,2.23,0,0,0,.47,1.47c3.51,4.05,7.06,8.05,10.58,12.08a6.54,6.54,0,0,1,.9,8.08,6.72,6.72,0,0,1-5.92,3.26c-3.13,0-6.25,0-9.46,0-.29,2.07-.58,4.07-.86,6.07-.26,1.78-.92,2.34-2.78,2.35H66.11c0,2.83-.13,5.57,0,8.28.16,2.45,2.3,4.59,4.9,5.27.1-.27.21-.55.31-.83a10.51,10.51,0,0,1,8.5-7.07,2.22,2.22,0,0,0,1.71-1.17c5.35-8.87,19.6-11,26.84.32,5.67,8.9-.69,19.14-9.8,21.3l-1.87.43H64.35a1.5,1.5,0,0,0-.24-.2,2.12,2.12,0,0,1-1.2-2.45,2.23,2.23,0,0,1,2.39-1.56c9.72,0,19.44,0,29.15,0a14.35,14.35,0,0,0,4.73-.82c4.56-1.67,7.56-6.35,7-10.53-.65-4.93-6.25-11-13.52-9.42a11.09,11.09,0,0,0-7.09,4.64c.61.32,1.16.57,1.67.89a12.74,12.74,0,0,1,1.47,1.06c1.26,1.07,1.49,2.31.65,3.29s-2.12,1-3.48-.13l-.25-.21a6.46,6.46,0,0,0-6.52-.86,6.11,6.11,0,0,0-3.94,5.13c-.33,2.45-1.13,3-3.63,2.7-5.26-.68-10.08-5.14-9.81-11.22.1-2.23,0-4.47,0-6.73h-13c0,2.52,0,5,0,7.42A11,11,0,0,1,38,99.27,2.2,2.2,0,0,1,35.4,97a6.08,6.08,0,0,0-3.93-5.57,6.37,6.37,0,0,0-6.93,1.15c-1.22,1-2.45,1-3.33,0s-.7-2.24.52-3.21c1-.78,2.08-1.42,3.18-2.17-.21-.27-.4-.55-.63-.82a11.24,11.24,0,0,0-17.1,0c-2.3,2.61-3.49,5.53-2.51,9a11.4,11.4,0,0,0,11,8.07c7.91,0,15.83,0,23.74,0,2.06,0,4.11,0,6.16,0a2,2,0,0,1,2.06,1.55,2,2,0,0,1-.91,2.29l-.51.36H13.82c-.24-.07-.47-.15-.71-.2C6.74,106.29,2.56,102.66.54,96.66c-.22-.66-.36-1.34-.54-2Zm67.48-23c0-.28.08-.48.11-.69q1.88-13.69,3.74-27.4a36.47,36.47,0,0,0-4.23-23A1.51,1.51,0,0,0,66,16.8q-10.68-.06-21.37,0a1.57,1.57,0,0,0-1.14.65,36.35,36.35,0,0,0-4.28,22.67c1,7.75,2.11,15.49,3.17,23.24.24,1.72.49,3.44.73,5.17Zm4.37,0c2.93,0,5.77,0,8.6,0a2.65,2.65,0,0,0,2.64-1.47,2.46,2.46,0,0,0-.56-2.9q-3.07-3.46-6.11-6.95l-2.61-3C73.14,59.15,72.5,63.79,71.85,68.55ZM36.75,54.26c-3.15,3.59-6.1,6.93-9,10.3a2.21,2.21,0,0,0-.25,2.58,2.53,2.53,0,0,0,2.35,1.41c2.05,0,4.1,0,6.15,0H38.7Zm7.47,22.67H66.33l.58-4.12H43.64Zm19.7-64.42a33.43,33.43,0,0,0-8.17-7.65,1.1,1.1,0,0,0-1,0c-1.63,1.26-3.28,2.51-4.8,3.9-1.18,1.08-2.19,2.34-3.44,3.7Z"/><path class="cls-1" d="M54.63,107.71c-.17-.12-.35-.23-.51-.35a2,2,0,0,1-.89-2.37,2.15,2.15,0,0,1,4.09,0,2,2,0,0,1-.88,2.36l-.51.36Z"/><path class="cls-1" d="M66.07,36.94A10.8,10.8,0,1,1,55.26,26.45,10.69,10.69,0,0,1,66.07,36.94ZM61.75,37a6.48,6.48,0,1,0-6.47,6.3A6.41,6.41,0,0,0,61.75,37Z"/></g></g></svg>