<svg xmlns="http://www.w3.org/2000/svg" viewBox="0 0 107.77 104.58"><defs><style>.cls-1{fill:#dc0073;}</style></defs><g id="Camada_2" data-name="Camada 2"><g id="Camada_1-2" data-name="Camada 1"><path class="cls-1" d="M107.77,15.11V75c-2,5.62-4.15,7.06-10.32,7.06H64.89c0,.22,0,.3,0,.35a53.85,53.85,0,0,1,2.66,5.32c.79,2.1,2,2.68,4.36,2.64A12.25,12.25,0,0,1,84.5,102c.08,1.69-.73,2.53-2.5,2.54H25.92c-1.85,0-2.69-.76-2.67-2.39A12.4,12.4,0,0,1,31.3,91.08a16.37,16.37,0,0,1,6.62-.81,1.23,1.23,0,0,0,1.35-.82c.66-1.39,1.4-2.74,2.1-4.11L43.07,82H41.51Q25.27,82,9,82c-5.46,0-9-3.47-9-8.78V17C0,11.64,3.57,8.2,9.1,8.19h12c.06-.4.11-.67.14-.93A8,8,0,0,1,25.85.87,18.49,18.49,0,0,1,28.42,0H79.35c.23.07.46.15.7.21a8.25,8.25,0,0,1,6.38,6.22c.14.55.18,1.13.27,1.72l.89,0c3.88,0,7.77,0,11.65,0a8.37,8.37,0,0,1,8.33,6.46A2.28,2.28,0,0,0,107.77,15.11ZM82.44,67.61v-1q0-28.9,0-57.8c0-3.1-1.67-4.7-4.88-4.7H30.2c-3.2,0-4.87,1.6-4.87,4.71V67.61ZM4.22,71.79c0,.85,0,1.6,0,2.34a4.1,4.1,0,0,0,3.58,3.73,11.8,11.8,0,0,0,1.46.07H98.49a10.27,10.27,0,0,0,1.47-.07A3.82,3.82,0,0,0,103.32,75a18.74,18.74,0,0,0,.31-3.24Zm8.5-51.26V67.59H21V20.53ZM95.06,67.61V20.54H86.73V67.61ZM80,100.44c0-.23-.08-.39-.13-.55a8.36,8.36,0,0,0-8.2-5.55q-17.52,0-35,0c-.49,0-1,0-1.47,0-3.45.19-6.78,2.94-7.33,6.07Zm6.72-84h9.63c2.33,0,3,.64,3,2.92V67.59h4.23V16.92c0-3-1.7-4.64-4.83-4.65h-12ZM21.07,12.27H9c-3,0-4.74,1.67-4.74,4.64V67.57H8.44V19.12c0-2,.72-2.72,2.77-2.73h9.86Zm43.13,78c-1.38-2.68-2.66-5.21-4-7.71a1.39,1.39,0,0,0-1-.47c-3.54,0-7.08,0-10.62,0a1.15,1.15,0,0,0-1.19.76c-.82,1.66-1.68,3.29-2.52,4.93-.42.81-.82,1.62-1.28,2.52Z"/><path class="cls-1" d="M53.85,12.12a7.07,7.07,0,0,1,1.64.94q7.34,7.59,14.6,15.25a1.88,1.88,0,0,1,0,2.84q-7.28,7.65-14.6,15.26a2.06,2.06,0,0,1-3.22,0Q45,38.79,37.67,31.15a1.89,1.89,0,0,1,0-2.85Q45,20.67,52.28,13.06A7.4,7.4,0,0,1,53.85,12.12Zm0,30L65.73,29.73,53.89,17.35,42,29.73Z"/><path class="cls-1" d="M53.89,59.45H40.44a2.12,2.12,0,0,1-2.34-1.62,2,2,0,0,1,2.11-2.45c1.23,0,2.46,0,3.68,0H67.22c1.38,0,2.25.59,2.45,1.63.26,1.38-.72,2.44-2.33,2.45H53.89Z"/><path class="cls-1" d="M65.47,10.28a2,2,0,0,1-2.17,2,2.06,2.06,0,0,1-2-2,2.13,2.13,0,0,1,2.09-2A2.06,2.06,0,0,1,65.47,10.28Z"/><path class="cls-1" d="M73.92,10.27a2,2,0,0,1-2.08,2,2.08,2.08,0,0,1-2.09-2A2.11,2.11,0,0,1,71.91,8.2,2,2,0,0,1,73.92,10.27Z"/></g></g></svg>